<svg width="111" height="40" viewBox="0 0 111 40" fill="none" xmlns="http://www.w3.org/2000/svg">
<path d="M51.0532 30.813L53.0748 24.7724H62.2853L64.3188 30.813H69.0556L60.4193 6.31543H54.9408L46.3164 30.813H51.0532ZM54.271 21.2078L57.5843 11.3394H57.7757L61.0891 21.2078H54.271Z" fill="#212B36"/>
<path d="M72.0909 37.703H76.4211V27.9183H76.6005C77.2823 29.258 78.7058 31.136 81.8637 31.136C86.1938 31.136 89.4354 27.703 89.4354 21.6504C89.4354 15.526 86.0981 12.2006 81.8517 12.2006C78.6101 12.2006 77.2584 14.1504 76.6005 15.4781H76.3493V12.4398H72.0909V37.703ZM76.3373 21.6264C76.3373 18.0618 77.8684 15.7532 80.6555 15.7532C83.5383 15.7532 85.0215 18.2054 85.0215 21.6264C85.0215 25.0714 83.5144 27.5834 80.6555 27.5834C77.8924 27.5834 76.3373 25.191 76.3373 21.6264Z" fill="#212B36"/>
<path d="M93.1436 37.703H97.4737V27.9183H97.6531C98.3349 29.258 99.7584 31.136 102.916 31.136C107.246 31.136 110.488 27.703 110.488 21.6504C110.488 15.526 107.151 12.2006 102.904 12.2006C99.6627 12.2006 98.311 14.1504 97.6531 15.4781H97.4019V12.4398H93.1436V37.703ZM97.39 21.6264C97.39 18.0618 98.9211 15.7532 101.708 15.7532C104.591 15.7532 106.074 18.2054 106.074 21.6264C106.074 25.0714 104.567 27.5834 101.708 27.5834C98.945 27.5834 97.39 25.191 97.39 21.6264Z" fill="#212B36"/>
<path fill-rule="evenodd" clip-rule="evenodd" d="M10.9642 36.3457C6.8093 37.7306 3.0079 33.4834 4.84322 29.5069L15.4604 6.50316C17.2479 2.63033 22.7524 2.63033 24.5399 6.50316L35.1569 29.5069C36.9923 33.4834 33.1909 37.7306 29.0361 36.3456L21.5813 33.8607C20.5549 33.5186 19.4454 33.5186 18.4191 33.8607L10.9642 36.3457Z" fill="#3056D3"/>
<path d="M21.6673 33.8886L21.5818 33.8601C20.5555 33.518 19.446 33.518 18.4197 33.8601L18.334 33.8887L18.334 16.6664C18.334 15.7459 19.0801 14.9998 20.0006 14.9998C20.9211 14.9998 21.6673 15.7459 21.6673 16.6664L21.6673 33.8886Z" fill="#98AAE9"/>
</svg>
